<svg viewBox="0 0 256 40" fill="none" xmlns="http://www.w3.org/2000/svg">
<path d="M40.5745 5.27328V40.4203H33.05V15.1998L22.4373 30.9841H18.9324L8.2706 15.1752V40.4203H0.746094V5.27328H10.2069L20.6481 21.0576L31.1383 5.27328H40.5745Z" fill="currentColor"/>
<path d="M49.1784 9.19485C48.002 9.19485 47.0052 8.78636 46.1883 7.96936C45.3713 7.15237 44.9628 6.15564 44.9628 4.97917C44.9628 3.83538 45.3713 2.85498 46.1883 2.03799C47.0052 1.221 48.002 0.8125 49.1784 0.8125C50.3222 0.8125 51.3026 1.221 52.1196 2.03799C52.9366 2.85498 53.3451 3.83538 53.3451 4.97917C53.3451 6.15564 52.9366 7.15237 52.1196 7.96936C51.3026 8.78636 50.3222 9.19485 49.1784 9.19485ZM45.6245 12.8223H52.6833V40.4203H45.6245V12.8223Z" fill="currentColor"/>
<path d="M77.2677 40.4203V26.6213C77.2677 23.9252 76.802 21.8828 75.8706 20.4939C74.9392 19.105 73.4278 18.4105 71.3363 18.4105C69.1141 18.4105 67.3984 19.154 66.1892 20.6409C64.9801 22.1115 64.3755 24.105 64.3755 26.6213V40.4203H57.3167V12.8223H64.0814L64.3755 16.8664C66.0422 13.8926 69.1549 12.4056 73.7137 12.4056C77.4719 12.4056 80.1762 13.6148 81.8265 16.0331C83.4768 18.4514 84.302 21.9808 84.302 26.6213V40.4203H77.2677Z" fill="currentColor"/>
<path d="M100.651 12.4056C102.955 12.4056 104.965 12.7978 106.68 13.5821C108.412 14.3664 109.679 15.4612 110.479 16.8664L110.798 12.8223H117.538V40.4203H110.798L110.479 36.3517C108.976 39.3256 105.7 40.8125 100.651 40.8125C98.8373 40.8125 97.1298 40.4612 95.5284 39.7586C93.9435 39.0396 92.5709 38.0674 91.4108 36.8419C90.2507 35.6164 89.3275 34.1213 88.6412 32.3566C87.9713 30.5756 87.6363 28.6638 87.6363 26.6213C87.6363 24.5788 87.9713 22.6752 88.6412 20.9105C89.3275 19.1295 90.2507 17.6262 91.4108 16.4007C92.5709 15.1589 93.9435 14.1867 95.5284 13.4841C97.1298 12.7651 98.8373 12.4056 100.651 12.4056ZM102.563 34.8321C104.785 34.8321 106.656 34.0641 108.176 32.5282C109.711 30.9759 110.479 29.0069 110.479 26.6213C110.479 24.2194 109.711 22.2504 108.176 20.7145C106.656 19.1785 104.785 18.4105 102.563 18.4105C100.357 18.4105 98.4941 19.1785 96.9745 20.7145C95.4713 22.2504 94.7196 24.2194 94.7196 26.6213C94.7196 28.9906 95.4794 30.9514 96.999 32.5037C98.5186 34.056 100.373 34.8321 102.563 34.8321Z" fill="currentColor"/>
<path d="M142.613 12.8223H150.162L140.431 40.4203H130.162L120.48 12.8223H128.005L135.309 34.2439L142.613 12.8223Z" fill="currentColor"/>
<path d="M165.261 12.4056C167.45 12.4056 169.476 12.7896 171.339 13.5576C173.218 14.3256 174.811 15.4122 176.119 16.8174C177.442 18.2063 178.447 19.9383 179.133 22.0135C179.82 24.0723 180.089 26.3435 179.942 28.8272H157.614C158.039 30.7717 158.954 32.3239 160.359 33.4841C161.764 34.6442 163.398 35.2243 165.261 35.2243C166.878 35.2243 168.308 34.8158 169.55 33.9988C170.808 33.1654 171.78 32.0053 172.467 30.5184L178.521 33.4105C177.279 35.7145 175.465 37.5282 173.079 38.8517C170.694 40.1589 168.088 40.8125 165.261 40.8125C162.548 40.8125 160.065 40.2488 157.81 39.1213C155.571 37.9939 153.766 36.3435 152.393 34.1703C151.021 31.9808 150.334 29.4645 150.334 26.6213C150.334 23.7782 151.021 21.2618 152.393 19.0723C153.766 16.8828 155.571 15.2243 157.81 14.0968C160.065 12.9694 162.548 12.4056 165.261 12.4056ZM165.261 18.0184C163.3 18.0184 161.625 18.5984 160.236 19.7586C158.864 20.9024 157.99 22.4547 157.614 24.4154H172.932C172.54 22.4547 171.658 20.9024 170.285 19.7586C168.913 18.5984 167.238 18.0184 165.261 18.0184Z" fill="currentColor"/>
<path d="M183.497 12.8223H190.262L190.556 16.2782C191.667 14.8239 192.958 13.819 194.428 13.2635C195.915 12.6916 197.876 12.4056 200.311 12.4056V18.4105C197.206 18.4105 194.804 19.154 193.105 20.6409C191.406 22.1115 190.556 24.105 190.556 26.6213V40.4203H183.497V12.8223Z" fill="currentColor"/>
<path d="M225.704 19.8566L218.645 20.3223C218.465 19.5217 217.975 18.8354 217.175 18.2635C216.39 17.6752 215.443 17.3811 214.331 17.3811C212.992 17.3811 211.913 17.6426 211.096 18.1654C210.279 18.672 209.871 19.4073 209.871 20.3713C209.871 21.0249 210.108 21.5805 210.581 22.038C211.072 22.4792 211.635 22.8223 212.273 23.0674C212.926 23.2962 213.841 23.5494 215.018 23.8272C216.684 24.2194 218.081 24.587 219.209 24.9301C220.336 25.2733 221.398 25.6818 222.395 26.1556C223.408 26.6132 224.184 27.1197 224.724 27.6752C225.279 28.2308 225.712 28.8844 226.023 29.636C226.333 30.3877 226.472 31.2455 226.439 32.2096C226.358 34.9547 225.271 37.0707 223.179 38.5576C221.104 40.0445 218.204 40.788 214.478 40.788C210.884 40.788 208 40.1017 205.826 38.7292C203.653 37.3566 202.428 35.3877 202.15 32.8223L209.16 32.2341C209.405 33.3452 210.034 34.2112 211.047 34.8321C212.06 35.4367 213.204 35.739 214.478 35.739C215.884 35.739 217.044 35.453 217.959 34.8811C218.874 34.3092 219.331 33.5086 219.331 32.4792C219.331 31.4988 218.759 30.69 217.616 30.0527C216.488 29.3991 214.952 28.8517 213.008 28.4105C210.998 27.9367 209.421 27.5037 208.277 27.1115C207.134 26.7194 206.104 26.221 205.189 25.6164C204.291 24.9955 203.661 24.2766 203.302 23.4596C202.959 22.6262 202.787 21.5805 202.787 20.3223C202.787 17.7569 203.825 15.7962 205.9 14.44C207.975 13.0837 210.851 12.4056 214.527 12.4056C217.812 12.4056 220.426 13.0347 222.371 14.2929C224.331 15.5511 225.443 17.4056 225.704 19.8566Z" fill="currentColor"/>
<path d="M243.622 12.4056C245.811 12.4056 247.837 12.7896 249.7 13.5576C251.579 14.3256 253.172 15.4122 254.479 16.8174C255.803 18.2063 256.808 19.9383 257.494 22.0135C258.18 24.0723 258.45 26.3435 258.303 28.8272H235.975C236.399 30.7717 237.314 32.3239 238.72 33.4841C240.125 34.6442 241.759 35.2243 243.622 35.2243C245.239 35.2243 246.669 34.8158 247.911 33.9988C249.169 33.1654 250.141 32.0053 250.827 30.5184L256.881 33.4105C255.64 35.7145 253.826 37.5282 251.44 38.8517C249.055 40.1589 246.448 40.8125 243.622 40.8125C240.909 40.8125 238.426 40.2488 236.171 39.1213C233.932 37.9939 232.126 36.3435 230.754 34.1703C229.381 31.9808 228.695 29.4645 228.695 26.6213C228.695 23.7782 229.381 21.2618 230.754 19.0723C232.126 16.8828 233.932 15.2243 236.171 14.0968C238.426 12.9694 240.909 12.4056 243.622 12.4056ZM243.622 18.0184C241.661 18.0184 239.986 18.5984 238.597 19.7586C237.225 20.9024 236.35 22.4547 235.975 24.4154H251.293C250.901 22.4547 250.019 20.9024 248.646 19.7586C247.274 18.5984 245.599 18.0184 243.622 18.0184Z" fill="currentColor"/>
</svg>
