<svg viewBox="0 0 302 40" fill="none" xmlns="http://www.w3.org/2000/svg">
<path fill-rule="evenodd" clip-rule="evenodd" d="M71.2662 0H62.1448L52.633 32.636L43.1211 0H33.9998L46.0779 40H59.1602L71.2662 0ZM0 40H9.12134L18.6332 7.36402L28.145 40H37.2664L25.1883 5.53321e-06L12.106 4.38952e-06L0 40Z" fill="#C873F0"/>
<path d="M126.863 7.56863V35.6863H120.843V15.5098L112.353 28.1373H109.549L101.02 15.4902V35.6863H95V7.56863H102.569L110.922 20.1961L119.314 7.56863H126.863Z" fill="#0E0F20"/>
<path d="M133.746 10.7059C132.805 10.7059 132.007 10.3791 131.354 9.72549C130.7 9.0719 130.373 8.27451 130.373 7.33333C130.373 6.4183 130.7 5.63399 131.354 4.98039C132.007 4.3268 132.805 4 133.746 4C134.661 4 135.445 4.3268 136.099 4.98039C136.752 5.63399 137.079 6.4183 137.079 7.33333C137.079 8.27451 136.752 9.0719 136.099 9.72549C135.445 10.3791 134.661 10.7059 133.746 10.7059ZM130.903 13.6078H136.55V35.6863H130.903V13.6078Z" fill="#0E0F20"/>
<path d="M156.217 35.6863V24.6471C156.217 22.4902 155.845 20.8562 155.1 19.7451C154.355 18.634 153.145 18.0784 151.472 18.0784C149.694 18.0784 148.322 18.6732 147.355 19.8627C146.387 21.0392 145.904 22.634 145.904 24.6471V35.6863H140.256V13.6078H145.668L145.904 16.8431C147.237 14.4641 149.727 13.2745 153.374 13.2745C156.381 13.2745 158.544 14.2418 159.864 16.1765C161.185 18.1111 161.845 20.9346 161.845 24.6471V35.6863H156.217Z" fill="#0E0F20"/>
<path d="M174.924 13.2745C176.767 13.2745 178.375 13.5882 179.747 14.2157C181.133 14.8431 182.146 15.719 182.787 16.8431L183.042 13.6078H188.434V35.6863H183.042L182.787 32.4314C181.584 34.8105 178.963 36 174.924 36C173.473 36 172.107 35.719 170.826 35.1569C169.558 34.5817 168.46 33.8039 167.532 32.8235C166.604 31.8431 165.865 30.6471 165.316 29.2353C164.78 27.8105 164.512 26.281 164.512 24.6471C164.512 23.0131 164.78 21.4902 165.316 20.0784C165.865 18.6536 166.604 17.451 167.532 16.4706C168.46 15.4771 169.558 14.6993 170.826 14.1373C172.107 13.5621 173.473 13.2745 174.924 13.2745ZM176.453 31.2157C178.231 31.2157 179.728 30.6013 180.944 29.3726C182.172 28.1307 182.787 26.5556 182.787 24.6471C182.787 22.7255 182.172 21.1503 180.944 19.9216C179.728 18.6928 178.231 18.0784 176.453 18.0784C174.689 18.0784 173.198 18.6928 171.983 19.9216C170.78 21.1503 170.179 22.7255 170.179 24.6471C170.179 26.5425 170.787 28.1111 172.002 29.3529C173.218 30.5948 174.702 31.2157 176.453 31.2157Z" fill="#0E0F20"/>
<path d="M208.493 13.6078H214.533L206.748 35.6863H198.533L190.787 13.6078H196.807L202.65 30.7451L208.493 13.6078Z" fill="#0E0F20"/>
<path d="M226.612 13.2745C228.363 13.2745 229.984 13.5817 231.475 14.1961C232.978 14.8105 234.252 15.6797 235.298 16.8039C236.357 17.915 237.161 19.3007 237.71 20.9608C238.259 22.6078 238.475 24.4248 238.357 26.4118H220.494C220.834 27.9673 221.566 29.2092 222.69 30.1373C223.814 31.0654 225.122 31.5294 226.612 31.5294C227.906 31.5294 229.05 31.2026 230.043 30.549C231.05 29.8824 231.827 28.9542 232.376 27.7647L237.22 30.0784C236.226 31.9216 234.775 33.3726 232.867 34.4314C230.958 35.4771 228.873 36 226.612 36C224.442 36 222.455 35.549 220.651 34.6471C218.86 33.7451 217.416 32.4248 216.318 30.6863C215.22 28.9346 214.671 26.9216 214.671 24.6471C214.671 22.3726 215.22 20.3595 216.318 18.6078C217.416 16.8562 218.86 15.5294 220.651 14.6275C222.455 13.7255 224.442 13.2745 226.612 13.2745ZM226.612 17.7647C225.043 17.7647 223.703 18.2288 222.592 19.1569C221.494 20.0719 220.795 21.3137 220.494 22.8824H232.749C232.435 21.3137 231.729 20.0719 230.631 19.1569C229.533 18.2288 228.193 17.7647 226.612 17.7647Z" fill="#0E0F20"/>
<path d="M241.201 13.6078H246.613L246.848 16.3725C247.737 15.2092 248.769 14.4052 249.946 13.9608C251.135 13.5033 252.704 13.2745 254.652 13.2745V18.0784C252.168 18.0784 250.247 18.6732 248.887 19.8627C247.528 21.0392 246.848 22.634 246.848 24.6471V35.6863H241.201V13.6078Z" fill="#0E0F20"/>
<path d="M274.966 19.2353L269.319 19.6078C269.175 18.9673 268.783 18.4183 268.143 17.9608C267.515 17.4902 266.757 17.2549 265.868 17.2549C264.796 17.2549 263.934 17.4641 263.28 17.8824C262.626 18.2876 262.3 18.8758 262.3 19.6471C262.3 20.1699 262.489 20.6144 262.868 20.9804C263.26 21.3333 263.711 21.6078 264.221 21.8039C264.744 21.9869 265.476 22.1895 266.417 22.4118C267.751 22.7255 268.868 23.0196 269.77 23.2941C270.672 23.5686 271.522 23.8954 272.319 24.2745C273.13 24.6405 273.751 25.0458 274.182 25.4902C274.626 25.9346 274.973 26.4575 275.221 27.0588C275.47 27.6601 275.581 28.3464 275.554 29.1176C275.489 31.3137 274.62 33.0065 272.947 34.1961C271.287 35.3856 268.966 35.9804 265.986 35.9804C263.11 35.9804 260.803 35.4314 259.064 34.3333C257.326 33.2353 256.345 31.6601 256.123 29.6078L261.731 29.1373C261.927 30.0261 262.43 30.719 263.241 31.2157C264.051 31.6993 264.966 31.9412 265.986 31.9412C267.11 31.9412 268.038 31.7124 268.77 31.2549C269.502 30.7974 269.868 30.1569 269.868 29.3333C269.868 28.549 269.411 27.902 268.496 27.3922C267.594 26.8693 266.365 26.4314 264.809 26.0784C263.202 25.6993 261.94 25.3529 261.025 25.0392C260.11 24.7255 259.287 24.3268 258.554 23.8431C257.836 23.3464 257.332 22.7712 257.045 22.1176C256.77 21.451 256.633 20.6144 256.633 19.6078C256.633 17.5556 257.463 15.9869 259.123 14.902C260.783 13.817 263.084 13.2745 266.025 13.2745C268.653 13.2745 270.744 13.7778 272.3 14.7843C273.868 15.7909 274.757 17.2745 274.966 19.2353Z" fill="#0E0F20"/>
<path d="M289.3 13.2745C291.052 13.2745 292.673 13.5817 294.163 14.1961C295.666 14.8105 296.941 15.6797 297.987 16.8039C299.045 17.915 299.849 19.3007 300.398 20.9608C300.947 22.6078 301.163 24.4248 301.045 26.4118H283.183C283.523 27.9673 284.255 29.2092 285.379 30.1373C286.503 31.0654 287.81 31.5294 289.3 31.5294C290.595 31.5294 291.738 31.2026 292.732 30.549C293.738 29.8824 294.516 28.9542 295.065 27.7647L299.908 30.0784C298.915 31.9216 297.464 33.3726 295.555 34.4314C293.647 35.4771 291.562 36 289.3 36C287.13 36 285.144 35.549 283.34 34.6471C281.549 33.7451 280.104 32.4248 279.006 30.6863C277.908 28.9346 277.359 26.9216 277.359 24.6471C277.359 22.3726 277.908 20.3595 279.006 18.6078C280.104 16.8562 281.549 15.5294 283.34 14.6275C285.144 13.7255 287.13 13.2745 289.3 13.2745ZM289.3 17.7647C287.732 17.7647 286.392 18.2288 285.281 19.1569C284.183 20.0719 283.483 21.3137 283.183 22.8824H295.438C295.124 21.3137 294.418 20.0719 293.32 19.1569C292.222 18.2288 290.882 17.7647 289.3 17.7647Z" fill="#0E0F20"/>
</svg>
